<svg width="16" height="16" viewBox="0 0 16 16" fill="none" xmlns="http://www.w3.org/2000/svg">
<g id="icon-wrapper" clip-path="url(#clip0_211_4793)">
<path id="Union" d="M15.5446 6.55718C15.6379 7.09413 15.6844 7.63818 15.6836 8.18318C15.6836 10.6172 14.8136 12.6752 13.2996 14.0682H13.3016C11.9776 15.2912 10.1576 15.9992 7.99963 15.9992C5.8779 15.9992 3.84307 15.1563 2.34278 13.656C0.842489 12.1557 -0.000366211 10.1209 -0.000366211 7.99918C-0.000366211 5.87744 0.842489 3.84261 2.34278 2.34232C3.84307 0.842031 5.8779 -0.000823975 7.99963 -0.000823975C9.98557 -0.0240823 11.9035 0.722009 13.3516 2.08118L11.0676 4.36518C10.242 3.57815 9.14013 3.14717 7.99963 3.16518C5.91263 3.16518 4.13963 4.57318 3.50763 6.46918C3.17254 7.46268 3.17254 8.53867 3.50763 9.53218H3.51063C4.14563 11.4252 5.91563 12.8332 8.00263 12.8332C9.08063 12.8332 10.0066 12.5572 10.7246 12.0692H10.7216C11.1385 11.793 11.4952 11.4352 11.77 11.0174C12.0448 10.5995 12.2321 10.1304 12.3206 9.63818H7.99963V6.55818H15.5446V6.55718Z" fill="#AA7938"/>
</g>
<defs>
<clipPath id="clip0_211_4793">
<rect width="16" height="16" fill="white"/>
</clipPath>
</defs>
</svg>
