<svg width="148" height="50" viewBox="0 0 148 50" fill="none" xmlns="http://www.w3.org/2000/svg">
<g id="Logo">
<path id="Click 1 (Traced)" fill-rule="evenodd" clip-rule="evenodd" d="M40.6027 6.06061V12.1212H43.6314H46.6602V6.06061V0H43.6314H40.6027V6.06061ZM57.2563 10.2318L53.1395 14.403L55.2043 16.4689L57.2699 18.5348L61.5859 14.2174L65.9011 9.89924L64.099 7.97955C63.1079 6.92424 62.0894 6.06061 61.8358 6.06061C61.5814 6.06061 59.5211 7.93788 57.2563 10.2318ZM23.921 8.73712L22.1189 10.6568L26.4053 14.9455L30.691 19.2341L32.6787 17.0886L34.6663 14.9432L30.6562 10.8803C28.4505 8.64621 26.4386 6.81818 26.1842 6.81818C25.9306 6.81818 24.9122 7.68182 23.921 8.73712ZM37.8806 16.5455C33.2965 18.6992 31.2044 22.5379 31.2044 28.7924C31.2044 37.6379 35.0161 41.8083 43.5406 42.2902C49.6215 42.6341 52.7556 41.3674 55.0196 37.6523C57.1223 34.203 56.9171 33.6167 53.1599 32.3356L49.8169 31.1962L48.8999 33.4106C47.9035 35.8174 45.513 36.8106 42.5236 36.0598C38.8127 35.1273 38.0502 26.0386 41.4022 22.6848C43.3952 20.6909 45.5933 20.8333 47.8618 23.103C49.5519 24.7939 50.0736 24.9212 52.8078 24.3068C54.4888 23.9288 56.0577 23.4265 56.2932 23.1902C56.8944 22.5886 53.5143 17.8136 51.6735 16.6636C48.9666 14.972 41.3674 14.9068 37.8806 16.5455ZM61.0468 29.1667V42.4242H64.4542H67.8615V29.1667V15.9091H64.4542H61.0468V29.1667ZM73.1618 18.1818C73.1618 20.4038 73.2459 20.4545 76.9478 20.4545C80.6497 20.4545 80.7337 20.4038 80.7337 18.1818C80.7337 15.9598 80.6497 15.9091 76.9478 15.9091C73.2459 15.9091 73.1618 15.9598 73.1618 18.1818ZM109.507 29.1667V42.4242H113.293H117.079V39.8902C117.079 38.3606 117.651 36.8386 118.521 36.0508C119.909 34.7939 120.043 34.8894 122.117 38.5841L124.272 42.4227L128.303 42.4235L132.334 42.4242L129.853 38.0682C128.488 35.672 126.846 32.7879 126.204 31.6583C125.06 29.6485 125.109 29.5295 128.408 26.1659L131.78 22.7273H127.372C123.147 22.7273 122.843 22.8614 120.052 25.947L117.141 29.1667L117.11 22.5379L117.079 15.9091H113.293H109.507V29.1667ZM73.1618 32.5758V42.4242H76.9478H80.7337V32.5758V22.7273H76.9478H73.1618V32.5758ZM90.1986 23.4106C89.3657 23.7765 87.8324 24.9939 86.7913 26.1144C85.2163 27.8098 84.8983 28.903 84.8983 32.622C84.8983 36.6508 85.1398 37.3341 87.3486 39.5432C89.5527 41.7485 90.313 42.0189 94.9205 42.2394C100.607 42.5121 102.813 41.7023 105.219 38.4591C107.016 36.0371 106.81 35.6879 103.25 35.1098C101.216 34.7795 100.045 35.0811 98.2733 36.3917C96.0638 38.0258 95.8677 38.0462 94.0239 36.8379C91.4063 35.122 91.2602 30.2136 93.7748 28.4523C95.9328 26.9394 96.9762 26.9652 98.5807 28.5705C99.9066 29.897 104.686 30.0523 105.976 28.8114C106.325 28.4758 105.598 27.0682 104.361 25.6833C102.279 23.3515 101.728 23.15 96.9126 22.9545C94.0527 22.8386 91.0315 23.0439 90.1986 23.4106ZM16.3726 28.0303V31.0606H22.0515H27.7304V28.0303V25H22.0515H16.3726V28.0303ZM25.0946 42.4091L21.3806 46.1818L23.1729 48.0909C24.1587 49.1409 25.1749 50 25.4301 50C25.686 50 27.6963 48.3083 29.8975 46.2402L33.9008 42.4803L32.5189 40.5818C31.7594 39.5379 30.6138 38.6735 29.9732 38.6598C29.3334 38.647 27.1375 40.3341 25.0946 42.4091Z" fill="#AA7938"/>
</g>
</svg>
